<svg width="638" height="553" viewBox="0 0 638 553" fill="none" xmlns="http://www.w3.org/2000/svg">
<path d="M25.0667 2.3869C16.5333 5.85357 7.6 14.2535 3.33333 23.0535L0 29.7202V233.054V436.387L3.33333 443.054C7.6 451.72 16.4 460.387 24.4 463.987C30 466.52 34.4 466.92 66.1333 467.854C153.067 470.387 205.467 479.987 247.333 501.054C268.133 511.587 281.733 522.254 299.333 541.854C307.6 551.054 314.133 554.12 322.8 552.52C326.8 551.72 330.533 548.654 343.867 535.054C369.6 508.92 394 495.054 432.667 484.52C470.8 474.254 509.067 469.587 570.8 467.854C605.067 466.92 605.6 466.92 613.067 463.32C622.533 458.654 631.733 448.52 634.933 439.32C637.2 432.787 637.333 422.387 637.333 232.387V32.3869L633.867 25.0535C629.333 15.1869 623.733 9.05357 615.067 4.25357L608 0.386902L572 0.520235C464.133 0.920235 383.867 24.5202 339.2 68.9202C332.933 75.3202 325.733 83.5869 323.067 87.4535L318.4 94.3869L311.6 85.1869C271.2 30.9202 189.2 2.3869 68 0.253568C33.8667 -0.279765 31.6 -0.146432 25.0667 2.3869ZM97.3333 43.8535C211.6 51.7202 273.733 82.7869 294.133 142.254C296.533 149.187 296.667 156.787 296.667 315.187V481.054L286.4 474.254C240.267 443.987 171.733 428.387 73.2 425.587L42 424.654V233.187V41.7202L59.6 42.1202C69.3333 42.2535 86.4 43.0535 97.3333 43.8535ZM595.067 233.454L595.333 425.054H579.733C559.067 425.054 519.2 427.32 496.667 429.72C434.133 436.52 387.6 450.52 350.933 473.587L339.333 480.92L339.6 313.987L340 147.054L343.867 137.72C352.8 116.254 367.867 97.3202 385.467 85.4535C423.6 59.5869 482.933 45.3202 564 42.5202C579.467 41.9869 592.667 41.5869 593.333 41.7202C594.267 41.8535 594.8 107.054 595.067 233.454Z" fill="#2C3E50"/>
</svg>
